# xmcd
#
# Track frame offsets:
#	150
#	14247
#	32492
#	59161
#	71269
#	81481
#	96277
#	106910
#	132266
#	145454
#
# Disc length: 2207 seconds
#
# Revision: 0
# Processed by: cddbd v1.5.1PL0 Copyright (c) Steve Scherf et al.
# Submitted via: EasyCDDAExtractor 4.6.9.1
#
DISCID=93089d0a
DTITLE=Marty Robbins - All Around Cowboy
DYEAR=1989
DGENRE=Country
TTITLE0=All Around Cowboy
TTITLE1=The Dreamer
TTITLE2=Pride And The Badge
TTITLE3=Restless Cattle
TTITLE4=When I'm Gone
TTITLE5=Buenos Dias Argentina
TTITLE6=Lonely Old Bunkhouse
TTITLE7=San Angelo
TTITLE8=Tumbling Tumbleweed
TTITLE9=Ballad Of A Small Man
EXTD=
EXTT0=
EXTT1=
EXTT2=
EXTT3=
EXTT4=
EXTT5=
EXTT6=
EXTT7=
EXTT8=
EXTT9=
PLAYORDER=
